<?xml version="1.0" encoding="UTF-8" standalone="no"?>
<!DOCTYPE svg PUBLIC "-//W3C//DTD SVG 1.1//EN"
 "http://www.w3.org/Graphics/SVG/1.1/DTD/svg11.dtd">
<!-- Generated by graphviz version 2.43.0 (0)
 -->
<!-- Title: %3 Pages: 1 -->
<svg width="2032pt" height="260pt"
 viewBox="0.00 0.00 2031.88 260.00" xmlns="http://www.w3.org/2000/svg" xmlns:xlink="http://www.w3.org/1999/xlink">
<g id="graph0" class="graph" transform="scale(1 1) rotate(0) translate(4 256)">
<title>%3</title>
<polygon fill="white" stroke="transparent" points="-4,4 -4,-256 2027.88,-256 2027.88,4 -4,4"/>
<!-- 0 -->
<g id="node1" class="node">
<title>0</title>
<ellipse fill="none" stroke="black" cx="547.49" cy="-234" rx="61.19" ry="18"/>
<text text-anchor="middle" x="547.49" y="-230.3" font-family="Times,serif" font-size="14.00">3W 3C R &#45;&#45;&#45;&#45; </text>
</g>
<!-- 1 -->
<g id="node2" class="node">
<title>1</title>
<ellipse fill="none" stroke="black" cx="159.49" cy="-162" rx="71.49" ry="18"/>
<text text-anchor="middle" x="159.49" y="-158.3" font-family="Times,serif" font-size="14.00">2W 3C &#45;&#45;&#45; R 1W</text>
</g>
<!-- 0&#45;&gt;1 -->
<g id="edge1" class="edge">
<title>0&#45;&gt;1</title>
<path fill="none" stroke="black" d="M495.06,-224.62C433.68,-214.65 329.01,-197.21 239.49,-180 233.69,-178.88 227.65,-177.68 221.62,-176.45"/>
<polygon fill="black" stroke="black" points="222,-172.96 211.5,-174.36 220.59,-179.81 222,-172.96"/>
</g>
<!-- 2 -->
<g id="node3" class="node">
<title>2</title>
<ellipse fill="none" stroke="black" cx="347.49" cy="-162" rx="98.58" ry="18"/>
<text text-anchor="middle" x="347.49" y="-158.3" font-family="Times,serif" font-size="14.00">3W 2C &#45;&#45;&#45; R 1C (Illegal)</text>
</g>
<!-- 0&#45;&gt;2 -->
<g id="edge2" class="edge">
<title>0&#45;&gt;2</title>
<path fill="none" stroke="black" d="M509.4,-219.67C478.66,-208.91 435.05,-193.65 400.84,-181.67"/>
<polygon fill="black" stroke="black" points="401.6,-178.23 391,-178.23 399.28,-184.84 401.6,-178.23"/>
</g>
<!-- 3 -->
<g id="node4" class="node">
<title>3</title>
<ellipse fill="none" stroke="black" cx="547.49" cy="-162" rx="83.39" ry="18"/>
<text text-anchor="middle" x="547.49" y="-158.3" font-family="Times,serif" font-size="14.00">2W 2C &#45;&#45;&#45; R 1W 1C</text>
</g>
<!-- 0&#45;&gt;3 -->
<g id="edge3" class="edge">
<title>0&#45;&gt;3</title>
<path fill="none" stroke="black" d="M547.49,-215.7C547.49,-207.98 547.49,-198.71 547.49,-190.11"/>
<polygon fill="black" stroke="black" points="550.99,-190.1 547.49,-180.1 543.99,-190.1 550.99,-190.1"/>
</g>
<!-- 4 -->
<g id="node5" class="node">
<title>4</title>
<ellipse fill="none" stroke="black" cx="720.49" cy="-162" rx="71.49" ry="18"/>
<text text-anchor="middle" x="720.49" y="-158.3" font-family="Times,serif" font-size="14.00">1W 3C &#45;&#45;&#45; R 2W</text>
</g>
<!-- 0&#45;&gt;4 -->
<g id="edge4" class="edge">
<title>0&#45;&gt;4</title>
<path fill="none" stroke="black" d="M582.08,-219C608.75,-208.21 645.86,-193.2 674.94,-181.43"/>
<polygon fill="black" stroke="black" points="676.51,-184.57 684.47,-177.58 673.89,-178.08 676.51,-184.57"/>
</g>
<!-- 5 -->
<g id="node6" class="node">
<title>5</title>
<ellipse fill="none" stroke="black" cx="908.49" cy="-162" rx="98.58" ry="18"/>
<text text-anchor="middle" x="908.49" y="-158.3" font-family="Times,serif" font-size="14.00">3W 1C &#45;&#45;&#45; R 2C (Illegal)</text>
</g>
<!-- 0&#45;&gt;5 -->
<g id="edge5" class="edge">
<title>0&#45;&gt;5</title>
<path fill="none" stroke="black" d="M596.93,-223.41C657.94,-211.58 762.3,-191.35 833.28,-177.58"/>
<polygon fill="black" stroke="black" points="834.34,-180.94 843.49,-175.6 833.01,-174.07 834.34,-180.94"/>
</g>
<!-- 6 -->
<g id="node7" class="node">
<title>6</title>
<ellipse fill="none" stroke="black" cx="159.49" cy="-90" rx="82.59" ry="18"/>
<text text-anchor="middle" x="159.49" y="-86.3" font-family="Times,serif" font-size="14.00">3W 3C R &#45;&#45;&#45; (Loop)</text>
</g>
<!-- 1&#45;&gt;6 -->
<g id="edge6" class="edge">
<title>1&#45;&gt;6</title>
<path fill="none" stroke="black" d="M159.49,-143.7C159.49,-135.98 159.49,-126.71 159.49,-118.11"/>
<polygon fill="black" stroke="black" points="162.99,-118.1 159.49,-108.1 155.99,-118.1 162.99,-118.1"/>
</g>
<!-- 7 -->
<g id="node8" class="node">
<title>7</title>
<ellipse fill="none" stroke="black" cx="359.49" cy="-90" rx="98.58" ry="18"/>
<text text-anchor="middle" x="359.49" y="-86.3" font-family="Times,serif" font-size="14.00">3W 2C R &#45;&#45;&#45; 1C (Illegal)</text>
</g>
<!-- 3&#45;&gt;7 -->
<g id="edge7" class="edge">
<title>3&#45;&gt;7</title>
<path fill="none" stroke="black" d="M507.62,-146.15C479.32,-135.62 441.09,-121.38 410.55,-110.01"/>
<polygon fill="black" stroke="black" points="411.52,-106.64 400.93,-106.43 409.08,-113.2 411.52,-106.64"/>
</g>
<!-- 8 -->
<g id="node9" class="node">
<title>8</title>
<ellipse fill="none" stroke="black" cx="547.49" cy="-90" rx="71.49" ry="18"/>
<text text-anchor="middle" x="547.49" y="-86.3" font-family="Times,serif" font-size="14.00">2W 3C R &#45;&#45;&#45; 1W</text>
</g>
<!-- 3&#45;&gt;8 -->
<g id="edge8" class="edge">
<title>3&#45;&gt;8</title>
<path fill="none" stroke="black" d="M547.49,-143.7C547.49,-135.98 547.49,-126.71 547.49,-118.11"/>
<polygon fill="black" stroke="black" points="550.99,-118.1 547.49,-108.1 543.99,-118.1 550.99,-118.1"/>
</g>
<!-- 9 -->
<g id="node10" class="node">
<title>9</title>
<ellipse fill="none" stroke="black" cx="720.49" cy="-90" rx="82.59" ry="18"/>
<text text-anchor="middle" x="720.49" y="-86.3" font-family="Times,serif" font-size="14.00">3W 3C R &#45;&#45;&#45; (Loop)</text>
</g>
<!-- 4&#45;&gt;9 -->
<g id="edge19" class="edge">
<title>4&#45;&gt;9</title>
<path fill="none" stroke="black" d="M720.49,-143.7C720.49,-135.98 720.49,-126.71 720.49,-118.11"/>
<polygon fill="black" stroke="black" points="723.99,-118.1 720.49,-108.1 716.99,-118.1 723.99,-118.1"/>
</g>
<!-- A -->
<g id="node11" class="node">
<title>A</title>
<ellipse fill="none" stroke="black" cx="1395.49" cy="-90" rx="71.49" ry="18"/>
<text text-anchor="middle" x="1395.49" y="-86.3" font-family="Times,serif" font-size="14.00">2W 3C R &#45;&#45;&#45; 1W</text>
</g>
<!-- 4&#45;&gt;A -->
<g id="edge20" class="edge">
<title>4&#45;&gt;A</title>
<path fill="none" stroke="black" d="M771.11,-149.28C780.82,-147.31 790.94,-145.43 800.49,-144 983.92,-116.44 1201.46,-101.52 1315.93,-95.03"/>
<polygon fill="black" stroke="black" points="1316.22,-98.52 1326,-94.47 1315.82,-91.53 1316.22,-98.52"/>
</g>
<!-- B -->
<g id="node12" class="node">
<title>B</title>
<ellipse fill="none" stroke="black" cx="97.49" cy="-18" rx="97.48" ry="18"/>
<text text-anchor="middle" x="97.49" y="-14.3" font-family="Times,serif" font-size="14.00">1W 3C &#45;&#45;&#45; R 2W (Loop)</text>
</g>
<!-- 8&#45;&gt;B -->
<g id="edge9" class="edge">
<title>8&#45;&gt;B</title>
<path fill="none" stroke="black" d="M495.96,-77.47C486.51,-75.52 476.72,-73.61 467.49,-72 351.27,-51.72 321.2,-53.26 204.49,-36 195.97,-34.74 187.08,-33.39 178.22,-32.02"/>
<polygon fill="black" stroke="black" points="178.67,-28.54 168.25,-30.46 177.59,-35.46 178.67,-28.54"/>
</g>
<!-- C -->
<g id="node13" class="node">
<title>C</title>
<ellipse fill="none" stroke="black" cx="296.49" cy="-18" rx="83.39" ry="18"/>
<text text-anchor="middle" x="296.49" y="-14.3" font-family="Times,serif" font-size="14.00">2W 2C &#45;&#45;&#45; R 1W 1C</text>
</g>
<!-- 8&#45;&gt;C -->
<g id="edge10" class="edge">
<title>8&#45;&gt;C</title>
<path fill="none" stroke="black" d="M501.45,-76.16C460.27,-64.68 399.69,-47.78 355.07,-35.34"/>
<polygon fill="black" stroke="black" points="355.81,-31.91 345.24,-32.59 353.93,-38.65 355.81,-31.91"/>
</g>
<!-- D -->
<g id="node14" class="node">
<title>D</title>
<ellipse fill="none" stroke="black" cx="453.49" cy="-18" rx="55.79" ry="18"/>
<text text-anchor="middle" x="453.49" y="-14.3" font-family="Times,serif" font-size="14.00">3C &#45;&#45;&#45; R 3W</text>
</g>
<!-- 8&#45;&gt;D -->
<g id="edge11" class="edge">
<title>8&#45;&gt;D</title>
<path fill="none" stroke="black" d="M525.69,-72.76C513.02,-63.33 496.89,-51.32 483.09,-41.04"/>
<polygon fill="black" stroke="black" points="484.96,-38.07 474.85,-34.91 480.78,-43.69 484.96,-38.07"/>
</g>
<!-- E -->
<g id="node15" class="node">
<title>E</title>
<ellipse fill="none" stroke="black" cx="641.49" cy="-18" rx="114.28" ry="18"/>
<text text-anchor="middle" x="641.49" y="-14.3" font-family="Times,serif" font-size="14.00">2W 1C &#45;&#45;&#45; R 1W 2C (Illegal)</text>
</g>
<!-- 8&#45;&gt;E -->
<g id="edge12" class="edge">
<title>8&#45;&gt;E</title>
<path fill="none" stroke="black" d="M569.29,-72.76C581.6,-63.6 597.18,-52 610.71,-41.92"/>
<polygon fill="black" stroke="black" points="612.9,-44.66 618.83,-35.88 608.72,-39.04 612.9,-44.66"/>
</g>
<!-- F -->
<g id="node16" class="node">
<title>F</title>
<ellipse fill="none" stroke="black" cx="888.49" cy="-18" rx="114.28" ry="18"/>
<text text-anchor="middle" x="888.49" y="-14.3" font-family="Times,serif" font-size="14.00">1W 2C &#45;&#45;&#45; R 2W 1C (Illegal)</text>
</g>
<!-- 8&#45;&gt;F -->
<g id="edge13" class="edge">
<title>8&#45;&gt;F</title>
<path fill="none" stroke="black" d="M600.64,-77.8C609.92,-75.86 619.49,-73.86 628.49,-72 689.82,-59.31 759.32,-45.16 811.03,-34.67"/>
<polygon fill="black" stroke="black" points="812.03,-38.04 821.13,-32.62 810.63,-31.18 812.03,-38.04"/>
</g>
<!-- G -->
<g id="node17" class="node">
<title>G</title>
<ellipse fill="none" stroke="black" cx="1118.49" cy="-18" rx="97.48" ry="18"/>
<text text-anchor="middle" x="1118.49" y="-14.3" font-family="Times,serif" font-size="14.00">1W 3C &#45;&#45;&#45; R 2W (Loop)</text>
</g>
<!-- A&#45;&gt;G -->
<g id="edge14" class="edge">
<title>A&#45;&gt;G</title>
<path fill="none" stroke="black" d="M1346.92,-76.73C1301.54,-65.26 1233.46,-48.05 1183.42,-35.41"/>
<polygon fill="black" stroke="black" points="1184.22,-32 1173.67,-32.94 1182.51,-38.79 1184.22,-32"/>
</g>
<!-- H -->
<g id="node18" class="node">
<title>H</title>
<ellipse fill="none" stroke="black" cx="1317.49" cy="-18" rx="83.39" ry="18"/>
<text text-anchor="middle" x="1317.49" y="-14.3" font-family="Times,serif" font-size="14.00">2W 2C &#45;&#45;&#45; R 1W 1C</text>
</g>
<!-- A&#45;&gt;H -->
<g id="edge15" class="edge">
<title>A&#45;&gt;H</title>
<path fill="none" stroke="black" d="M1377.01,-72.41C1367.07,-63.5 1354.66,-52.36 1343.74,-42.56"/>
<polygon fill="black" stroke="black" points="1345.89,-39.79 1336.11,-35.71 1341.22,-45 1345.89,-39.79"/>
</g>
<!-- I -->
<g id="node19" class="node">
<title>I</title>
<ellipse fill="none" stroke="black" cx="1474.49" cy="-18" rx="55.79" ry="18"/>
<text text-anchor="middle" x="1474.49" y="-14.3" font-family="Times,serif" font-size="14.00">3C &#45;&#45;&#45; R 3W</text>
</g>
<!-- A&#45;&gt;I -->
<g id="edge16" class="edge">
<title>A&#45;&gt;I</title>
<path fill="none" stroke="black" d="M1414.21,-72.41C1424.42,-63.37 1437.22,-52.03 1448.39,-42.13"/>
<polygon fill="black" stroke="black" points="1451.01,-44.48 1456.18,-35.23 1446.37,-39.24 1451.01,-44.48"/>
</g>
<!-- J -->
<g id="node20" class="node">
<title>J</title>
<ellipse fill="none" stroke="black" cx="1662.49" cy="-18" rx="114.28" ry="18"/>
<text text-anchor="middle" x="1662.49" y="-14.3" font-family="Times,serif" font-size="14.00">2W 1C &#45;&#45;&#45; R 1W 2C (Illegal)</text>
</g>
<!-- A&#45;&gt;J -->
<g id="edge17" class="edge">
<title>A&#45;&gt;J</title>
<path fill="none" stroke="black" d="M1443.23,-76.49C1485.94,-65.29 1548.96,-48.77 1596.49,-36.3"/>
<polygon fill="black" stroke="black" points="1597.6,-39.63 1606.38,-33.71 1595.82,-32.86 1597.6,-39.63"/>
</g>
<!-- K -->
<g id="node21" class="node">
<title>K</title>
<ellipse fill="none" stroke="black" cx="1909.49" cy="-18" rx="114.28" ry="18"/>
<text text-anchor="middle" x="1909.49" y="-14.3" font-family="Times,serif" font-size="14.00">1W 2C &#45;&#45;&#45; R 2W 1C (Illegal)</text>
</g>
<!-- A&#45;&gt;K -->
<g id="edge18" class="edge">
<title>A&#45;&gt;K</title>
<path fill="none" stroke="black" d="M1456.96,-80.67C1533.81,-70.25 1669.38,-51.85 1785.49,-36 1795.53,-34.63 1806.02,-33.2 1816.46,-31.77"/>
<polygon fill="black" stroke="black" points="1817.02,-35.22 1826.45,-30.4 1816.07,-28.29 1817.02,-35.22"/>
</g>
</g>
</svg>
