<?xml version="1.0" encoding="UTF-8" standalone="no"?>
<!DOCTYPE svg PUBLIC "-//W3C//DTD SVG 1.1//EN"
 "http://www.w3.org/Graphics/SVG/1.1/DTD/svg11.dtd">
<!-- Generated by graphviz version 2.43.0 (0)
 -->
<!-- Title: %3 Pages: 1 -->
<svg width="2150pt" height="260pt"
 viewBox="0.00 0.00 2149.89 260.00" xmlns="http://www.w3.org/2000/svg" xmlns:xlink="http://www.w3.org/1999/xlink">
<g id="graph0" class="graph" transform="scale(1 1) rotate(0) translate(4 256)">
<title>%3</title>
<polygon fill="white" stroke="transparent" points="-4,4 -4,-256 2145.89,-256 2145.89,4 -4,4"/>
<!-- 0 -->
<g id="node1" class="node">
<title>0</title>
<ellipse fill="#803080" stroke="black" cx="613.5" cy="-234" rx="76.89" ry="18"/>
<text text-anchor="middle" x="613.5" y="-230.3" font-family="Times,serif" font-size="14.00">N1: 3W 3C R &#45;&#45;&#45;&#45; </text>
</g>
<!-- 1 -->
<g id="node2" class="node">
<title>1</title>
<ellipse fill="#803080" stroke="black" cx="163.5" cy="-162" rx="87.18" ry="18"/>
<text text-anchor="middle" x="163.5" y="-158.3" font-family="Times,serif" font-size="14.00">N2: 2W 3C &#45;&#45;&#45; R 1W</text>
</g>
<!-- 0&#45;&gt;1 -->
<g id="edge1" class="edge">
<title>0&#45;&gt;1</title>
<path fill="none" stroke="black" d="M549.47,-223.94C478.5,-213.77 360.69,-196.53 259.5,-180 252.12,-178.8 244.44,-177.5 236.77,-176.18"/>
<polygon fill="black" stroke="black" points="237.17,-172.7 226.72,-174.44 235.97,-179.6 237.17,-172.7"/>
</g>
<!-- 2 -->
<g id="node3" class="node">
<title>2</title>
<ellipse fill="#803080" stroke="black" cx="382.5" cy="-162" rx="114.28" ry="18"/>
<text text-anchor="middle" x="382.5" y="-158.3" font-family="Times,serif" font-size="14.00">N3: 3W 2C &#45;&#45;&#45; R 1C (Illegal)</text>
</g>
<!-- 0&#45;&gt;2 -->
<g id="edge2" class="edge">
<title>0&#45;&gt;2</title>
<path fill="none" stroke="black" d="M568.41,-219.34C532.46,-208.44 481.8,-193.09 442.43,-181.16"/>
<polygon fill="black" stroke="black" points="443.27,-177.76 432.69,-178.21 441.24,-184.46 443.27,-177.76"/>
</g>
<!-- 3 -->
<g id="node4" class="node">
<title>3</title>
<ellipse fill="#803080" stroke="black" cx="613.5" cy="-162" rx="98.58" ry="18"/>
<text text-anchor="middle" x="613.5" y="-158.3" font-family="Times,serif" font-size="14.00">N4: 2W 2C &#45;&#45;&#45; R 1W 1C</text>
</g>
<!-- 0&#45;&gt;3 -->
<g id="edge3" class="edge">
<title>0&#45;&gt;3</title>
<path fill="none" stroke="black" d="M613.5,-215.7C613.5,-207.98 613.5,-198.71 613.5,-190.11"/>
<polygon fill="black" stroke="black" points="617,-190.1 613.5,-180.1 610,-190.1 617,-190.1"/>
</g>
<!-- 4 -->
<g id="node5" class="node">
<title>4</title>
<ellipse fill="#c000c0" stroke="black" cx="819.5" cy="-162" rx="87.18" ry="18"/>
<text text-anchor="middle" x="819.5" y="-158.3" font-family="Times,serif" font-size="14.00">N5: 1W 3C &#45;&#45;&#45; R 2W</text>
</g>
<!-- 0&#45;&gt;4 -->
<g id="edge4" class="edge">
<title>0&#45;&gt;4</title>
<path fill="none" stroke="black" d="M655.19,-218.83C687.32,-207.92 731.97,-192.74 766.61,-180.97"/>
<polygon fill="black" stroke="black" points="767.76,-184.28 776.1,-177.75 765.51,-177.65 767.76,-184.28"/>
</g>
<!-- 5 -->
<g id="node6" class="node">
<title>5</title>
<ellipse fill="#c0a0c0" stroke="black" cx="1038.5" cy="-162" rx="114.28" ry="18"/>
<text text-anchor="middle" x="1038.5" y="-158.3" font-family="Times,serif" font-size="14.00">N6: 3W 1C &#45;&#45;&#45; R 2C (Illegal)</text>
</g>
<!-- 0&#45;&gt;5 -->
<g id="edge5" class="edge">
<title>0&#45;&gt;5</title>
<path fill="none" stroke="black" d="M674.39,-222.97C747.32,-210.96 869.97,-190.76 952.53,-177.16"/>
<polygon fill="black" stroke="black" points="953.35,-180.57 962.64,-175.49 952.21,-173.67 953.35,-180.57"/>
</g>
<!-- 6 -->
<g id="node7" class="node">
<title>6</title>
<ellipse fill="#c0a0c0" stroke="black" cx="163.5" cy="-90" rx="98.28" ry="18"/>
<text text-anchor="middle" x="163.5" y="-86.3" font-family="Times,serif" font-size="14.00">N7: 3W 3C R &#45;&#45;&#45; (Loop)</text>
</g>
<!-- 1&#45;&gt;6 -->
<g id="edge6" class="edge">
<title>1&#45;&gt;6</title>
<path fill="none" stroke="black" d="M163.5,-143.7C163.5,-135.98 163.5,-126.71 163.5,-118.11"/>
<polygon fill="black" stroke="black" points="167,-118.1 163.5,-108.1 160,-118.1 167,-118.1"/>
</g>
<!-- 7 -->
<g id="node8" class="node">
<title>7</title>
<ellipse fill="#c0a0c0" stroke="black" cx="394.5" cy="-90" rx="114.28" ry="18"/>
<text text-anchor="middle" x="394.5" y="-86.3" font-family="Times,serif" font-size="14.00">N8: 3W 2C R &#45;&#45;&#45; 1C (Illegal)</text>
</g>
<!-- 3&#45;&gt;7 -->
<g id="edge7" class="edge">
<title>3&#45;&gt;7</title>
<path fill="none" stroke="black" d="M566.79,-146.07C533.37,-135.39 488.18,-120.94 452.46,-109.53"/>
<polygon fill="black" stroke="black" points="453.25,-106.1 442.66,-106.39 451.11,-112.77 453.25,-106.1"/>
</g>
<!-- 8 -->
<g id="node9" class="node">
<title>8</title>
<ellipse fill="#c0a0c0" stroke="black" cx="613.5" cy="-90" rx="87.18" ry="18"/>
<text text-anchor="middle" x="613.5" y="-86.3" font-family="Times,serif" font-size="14.00">N9: 2W 3C R &#45;&#45;&#45; 1W</text>
</g>
<!-- 3&#45;&gt;8 -->
<g id="edge8" class="edge">
<title>3&#45;&gt;8</title>
<path fill="none" stroke="black" d="M613.5,-143.7C613.5,-135.98 613.5,-126.71 613.5,-118.11"/>
<polygon fill="black" stroke="black" points="617,-118.1 613.5,-108.1 610,-118.1 617,-118.1"/>
</g>
<!-- 9 -->
<g id="node10" class="node">
<title>9</title>
<ellipse fill="#c0a0c0" stroke="black" cx="821.5" cy="-90" rx="102.88" ry="18"/>
<text text-anchor="middle" x="821.5" y="-86.3" font-family="Times,serif" font-size="14.00">N10: 3W 3C R &#45;&#45;&#45; (Loop)</text>
</g>
<!-- 4&#45;&gt;9 -->
<g id="edge19" class="edge">
<title>4&#45;&gt;9</title>
<path fill="none" stroke="black" d="M819.99,-143.7C820.21,-135.98 820.48,-126.71 820.73,-118.11"/>
<polygon fill="black" stroke="black" points="824.22,-118.2 821.01,-108.1 817.23,-118 824.22,-118.2"/>
</g>
<!-- A -->
<g id="node11" class="node">
<title>A</title>
<ellipse fill="#c0a0c0" stroke="black" cx="1533.5" cy="-90" rx="90.98" ry="18"/>
<text text-anchor="middle" x="1533.5" y="-86.3" font-family="Times,serif" font-size="14.00">N11: 2W 3C R &#45;&#45;&#45; 1W</text>
</g>
<!-- 4&#45;&gt;A -->
<g id="edge20" class="edge">
<title>4&#45;&gt;A</title>
<path fill="none" stroke="black" d="M881.09,-149.25C892.5,-147.31 904.34,-145.46 915.5,-144 1099.45,-119.87 1315.7,-104.22 1437.47,-96.56"/>
<polygon fill="black" stroke="black" points="1437.75,-100.05 1447.51,-95.93 1437.31,-93.06 1437.75,-100.05"/>
</g>
<!-- B -->
<g id="node12" class="node">
<title>B</title>
<polygon fill="#50c050" stroke="black" points="181,-36 0,-36 0,0 181,0 181,-36"/>
<text text-anchor="middle" x="90.5" y="-14.3" font-family="Times,serif" font-size="14.00">N12: 1W 3C &#45;&#45;&#45; R 2W (Loop)</text>
</g>
<!-- 8&#45;&gt;B -->
<g id="edge9" class="edge">
<title>8&#45;&gt;B</title>
<path fill="none" stroke="black" d="M551.37,-77.38C540.12,-75.46 528.47,-73.57 517.5,-72 376.02,-51.71 337.04,-56.05 191.42,-36.08"/>
<polygon fill="black" stroke="black" points="191.6,-32.57 181.21,-34.66 190.64,-39.5 191.6,-32.57"/>
</g>
<!-- C -->
<g id="node13" class="node">
<title>C</title>
<ellipse fill="none" stroke="black" cx="302.5" cy="-18" rx="103.18" ry="18"/>
<text text-anchor="middle" x="302.5" y="-14.3" font-family="Times,serif" font-size="14.00">N13: 2W 2C &#45;&#45;&#45; R 1W 1C</text>
</g>
<!-- 8&#45;&gt;C -->
<g id="edge10" class="edge">
<title>8&#45;&gt;C</title>
<path fill="none" stroke="black" d="M556.82,-76.24C505.09,-64.6 428.44,-47.35 372.82,-34.83"/>
<polygon fill="black" stroke="black" points="373.56,-31.41 363.04,-32.63 372.03,-38.24 373.56,-31.41"/>
</g>
<!-- D -->
<g id="node14" class="node">
<title>D</title>
<ellipse fill="none" stroke="black" cx="499.5" cy="-18" rx="76.09" ry="18"/>
<text text-anchor="middle" x="499.5" y="-14.3" font-family="Times,serif" font-size="14.00">N14: 3C &#45;&#45;&#45; R 3W</text>
</g>
<!-- 8&#45;&gt;D -->
<g id="edge11" class="edge">
<title>8&#45;&gt;D</title>
<path fill="none" stroke="black" d="M587.06,-72.76C571.38,-63.13 551.31,-50.81 534.35,-40.4"/>
<polygon fill="black" stroke="black" points="536.15,-37.4 525.8,-35.15 532.49,-43.36 536.15,-37.4"/>
</g>
<!-- E -->
<g id="node15" class="node">
<title>E</title>
<ellipse fill="none" stroke="black" cx="727.5" cy="-18" rx="133.78" ry="18"/>
<text text-anchor="middle" x="727.5" y="-14.3" font-family="Times,serif" font-size="14.00">N15: 2W 1C &#45;&#45;&#45; R 1W 2C (Illegal)</text>
</g>
<!-- 8&#45;&gt;E -->
<g id="edge12" class="edge">
<title>8&#45;&gt;E</title>
<path fill="none" stroke="black" d="M639.94,-72.76C655.26,-63.36 674.76,-51.39 691.46,-41.13"/>
<polygon fill="black" stroke="black" points="693.72,-43.85 700.41,-35.63 690.06,-37.88 693.72,-43.85"/>
</g>
<!-- F -->
<g id="node16" class="node">
<title>F</title>
<ellipse fill="none" stroke="black" cx="1013.5" cy="-18" rx="133.78" ry="18"/>
<text text-anchor="middle" x="1013.5" y="-14.3" font-family="Times,serif" font-size="14.00">N16: 1W 2C &#45;&#45;&#45; R 2W 1C (Illegal)</text>
</g>
<!-- 8&#45;&gt;F -->
<g id="edge13" class="edge">
<title>8&#45;&gt;F</title>
<path fill="none" stroke="black" d="M677.27,-77.68C688.03,-75.78 699.08,-73.83 709.5,-72 782.1,-59.24 864.48,-44.89 925.15,-34.34"/>
<polygon fill="black" stroke="black" points="925.82,-37.78 935.07,-32.61 924.62,-30.88 925.82,-37.78"/>
</g>
<!-- G -->
<g id="node17" class="node">
<title>G</title>
<ellipse fill="none" stroke="black" cx="1262.5" cy="-18" rx="97.48" ry="18"/>
<text text-anchor="middle" x="1262.5" y="-14.3" font-family="Times,serif" font-size="14.00">1W 3C &#45;&#45;&#45; R 2W (Loop)</text>
</g>
<!-- A&#45;&gt;G -->
<g id="edge14" class="edge">
<title>A&#45;&gt;G</title>
<path fill="none" stroke="black" d="M1480.61,-75.34C1436.46,-63.93 1373.39,-47.64 1326.42,-35.51"/>
<polygon fill="black" stroke="black" points="1327.21,-32.1 1316.65,-32.99 1325.46,-38.88 1327.21,-32.1"/>
</g>
<!-- H -->
<g id="node18" class="node">
<title>H</title>
<ellipse fill="none" stroke="black" cx="1461.5" cy="-18" rx="83.39" ry="18"/>
<text text-anchor="middle" x="1461.5" y="-14.3" font-family="Times,serif" font-size="14.00">2W 2C &#45;&#45;&#45; R 1W 1C</text>
</g>
<!-- A&#45;&gt;H -->
<g id="edge15" class="edge">
<title>A&#45;&gt;H</title>
<path fill="none" stroke="black" d="M1516.07,-72.05C1507.05,-63.28 1495.89,-52.43 1486.01,-42.83"/>
<polygon fill="black" stroke="black" points="1488.38,-40.25 1478.77,-35.79 1483.5,-45.27 1488.38,-40.25"/>
</g>
<!-- I -->
<g id="node19" class="node">
<title>I</title>
<polygon fill="#50c050" stroke="black" points="1648.5,-36 1562.5,-36 1562.5,0 1648.5,0 1648.5,-36"/>
<text text-anchor="middle" x="1605.5" y="-14.3" font-family="Times,serif" font-size="14.00">3C &#45;&#45;&#45; R 3W</text>
</g>
<!-- A&#45;&gt;I -->
<g id="edge16" class="edge">
<title>A&#45;&gt;I</title>
<path fill="none" stroke="black" d="M1550.93,-72.05C1559.88,-63.35 1570.95,-52.59 1580.77,-43.04"/>
<polygon fill="black" stroke="black" points="1583.25,-45.51 1587.98,-36.03 1578.37,-40.49 1583.25,-45.51"/>
</g>
<!-- J -->
<g id="node20" class="node">
<title>J</title>
<ellipse fill="none" stroke="black" cx="1780.5" cy="-18" rx="114.28" ry="18"/>
<text text-anchor="middle" x="1780.5" y="-14.3" font-family="Times,serif" font-size="14.00">2W 1C &#45;&#45;&#45; R 1W 2C (Illegal)</text>
</g>
<!-- A&#45;&gt;J -->
<g id="edge17" class="edge">
<title>A&#45;&gt;J</title>
<path fill="none" stroke="black" d="M1583.19,-74.92C1621.92,-63.94 1675.96,-48.63 1717.69,-36.8"/>
<polygon fill="black" stroke="black" points="1718.81,-40.12 1727.47,-34.03 1716.9,-33.39 1718.81,-40.12"/>
</g>
<!-- K -->
<g id="node21" class="node">
<title>K</title>
<ellipse fill="none" stroke="black" cx="2027.5" cy="-18" rx="114.28" ry="18"/>
<text text-anchor="middle" x="2027.5" y="-14.3" font-family="Times,serif" font-size="14.00">1W 2C &#45;&#45;&#45; R 2W 1C (Illegal)</text>
</g>
<!-- A&#45;&gt;K -->
<g id="edge18" class="edge">
<title>A&#45;&gt;K</title>
<path fill="none" stroke="black" d="M1605.07,-78.86C1692.36,-66.49 1840.07,-45.56 1935.66,-32.01"/>
<polygon fill="black" stroke="black" points="1936.2,-35.47 1945.61,-30.6 1935.22,-28.54 1936.2,-35.47"/>
</g>
</g>
</svg>
